<svg xmlns="http://www.w3.org/2000/svg" style="display: none;">
  <symbol id="new" viewBox="0 0 24 24">
    <path d="M 14 2 L 6 2 C 4.8954305003384135 2, 4 2.8954305003384126, 4 3.9999999999999996 L 4 20 C 4 21.104569499661586, 4.8954305003384135 22, 6 22 L 18 22 C 19.104569499661586 22, 20 21.104569499661586, 20 20 L 20 8 L 14 2 Z" />
    <path d="M 14 2 L 14 8 L 20 8" />
    <path d="M 12 18 L 12 12" />
    <path d="M 9 15 L 15 15" />
  </symbol>
  <symbol id="open" viewBox="0 0 24 24">
    <path d="M 22 19 C 22 20.104569499661586, 21.104569499661586 21, 20 21 L 4 21 C 2.8954305003384135 21, 2 20.104569499661586, 2 19 L 2 5 C 1.9999999999999998 3.8954305003384135, 2.8954305003384126 3, 3.9999999999999996 3 L 9 3 L 11 6 L 20 6 C 21.104569499661586 6, 22 6.8954305003384135, 22 8 L 22 19 Z" />
  </symbol>
  <symbol id="import" viewBox="0 0 24 24">
    <path d="M 21 15 L 21 19 C 21 20.104569499661586, 20.104569499661586 21, 19 21 L 5 21 C 3.8954305003384135 21, 3 20.104569499661586, 3 19 L 3 15" />
    <path d="M 17 9 L 12 4 L 7 9" />
    <path d="M 12 4 L 12 16" />
  </symbol>
  <symbol id="save" viewBox="0 0 24 24">
    <path d="M 19 21 L 5 21 C 3.8954305003384135 21, 3 20.104569499661586, 3 19 L 3 5 C 3 3.8954305003384135, 3.8954305003384135 3, 5 3 L 16 3 L 21 8 L 21 19 C 21 20.104569499661586, 20.104569499661586 21, 19 21 Z" />
    <path d="M 17 21 L 17 13 L 7 13 L 7 21" />
    <path d="M 7 3 L 7 8 L 15 8" />
  </symbol>
  <symbol id="undo" viewBox="0 0 24 24">
    <path d="M 3 7 L 3 13 L 9 13" />
    <path d="M 21 17 C 21 12.029437251522861, 16.97056274847714 8, 12 8 C 9.785122259956267 8.002255454948946, 7.648853135222426 8.82115861943025, 6.000000000000001 10.3 L 3 13" />
  </symbol>
  <symbol id="redo" viewBox="0 0 24 24">
    <path d="M 21 7 L 21 13 L 15 13" />
    <path d="M 3 17 C 2.9999999999999996 12.029437251522861, 7.029437251522858 8.000000000000002, 11.999999999999998 8 C 14.214877740043733 8.002255454948946, 16.351146864777576 8.82115861943025, 18 10.3 L 21 13" />
  </symbol>
  <symbol id="fit" viewBox="0 0 24 24">
    <path d="M 15 3 L 21 3 L 21 9" />
    <path d="M 9 21 L 3 21 L 3 15" />
    <path d="M 21 15 L 21 21 L 15 21" />
    <path d="M 3 9 L 3 3 L 9 3" />
  </symbol>
  <symbol id="fit-window" viewBox="0 0 24 24">
    <path d="M 15 3 L 21 3 L 21 9" />
    <path d="M 9 21 L 3 21 L 3 15" />
    <path d="M 21 15 L 21 21 L 15 21" />
    <path d="M 3 9 L 3 3 L 9 3" />
    <path d="M 7 12.041666666666666 C 6.999999999999998 10.704533530392295, 7.531174070175646 9.422165886193326, 8.476669978184487 8.476669978184486 C 9.42216588619333 7.531174070175645, 10.704533530392299 6.999999999999997, 12.041666666666666 6.999999999999998 L 13.083333333333334 7 C 15.246448603503943 6.999999999999998, 17 8.753551396496057, 17 10.916666666666664 L 17 12.833333333333334 C 17 13.938402040998103, 16.561013165144093 14.998210011410473, 15.77961158827728 15.779611588277284 C 14.99821001141047 16.561013165144093, 13.938402040998099 17, 12.833333333333332 17 L 11.041666666666666 17 C 9.969750020231842 17, 8.941736288931844 16.574182770189772, 8.183776759371037 15.816223240628965 C 7.425817229810231 15.058263711068157, 7 14.030249979768158, 7 12.958333333333334 L 7 12.041666666666666 Z" />
  </symbol>
  <symbol id="select" viewBox="0 0 24 24">
    <path d="M 3 3 L 10.07 19.97 L 12.58 12.579999999999998 L 19.97 10.069999999999999 L 3 3 Z" />
    <path d="M 13 13 L 19 19" />
  </symbol>
  <symbol id="rect" viewBox="0 0 24 24">
    <path d="M 3 3 L 21 3 L 21 21 L 3 21 L 3 3 Z" />
  </symbol>
  <symbol id="circle" viewBox="0 0 24 24">
    <path d="M 22 12 C 22 17.522847498307932, 17.522847498307932 22, 12 22 C 6.477152501692067 22, 2.000000000000001 17.522847498307936, 2 12.000000000000002 C 1.9999999999999993 6.477152501692069, 6.477152501692065 2.000000000000001, 11.999999999999998 2 C 17.522847498307932 2.0000000000000004, 22 6.477152501692067, 22 12 Z" />
  </symbol>
  <symbol id="polygon" viewBox="0 0 24 24">
    <path d="M 12 2 L 21 9 L 18 21 L 6 21 L 3 9 L 12 2 Z" />
  </symbol>
  <symbol id="spline" viewBox="0 0 24 24">
    <path d="M 4 18 C 8 18, 8 6, 12 6 C 16 6, 16 18, 20 18" />
    <path d="M 5 18 C 5 18.552284749830793, 4.552284749830793 19, 4 19 C 3.4477152501692068 19, 3 18.552284749830793, 3 18 C 3 17.447715250169207, 3.4477152501692068 17, 4 17 C 4.552284749830793 17, 5 17.447715250169207, 5 18 Z" />
    <path d="M 21 18 C 21 18.552284749830793, 20.552284749830793 19, 20 19 C 19.447715250169207 19, 19 18.552284749830793, 19 18 C 19 17.447715250169207, 19.447715250169207 17, 20 17 C 20.552284749830793 17, 21 17.447715250169207, 21 18 Z" />
  </symbol>
  <symbol id="composite" viewBox="0 0 24 24">
    <path d="M 3 6 C 3 4.8954305003384135, 3.8954305003384135 4, 5 4 L 13 4 C 14.104569499661586 4, 15 4.8954305003384135, 15 6 L 15 14 C 15 15.104569499661586, 14.104569499661586 16, 13 16 L 5 16 C 3.8954305003384135 16, 3 15.104569499661586, 3 14 L 3 6 Z" />
    <path d="M 21 15 C 21 18.31370849898476, 18.31370849898476 21, 15 21 C 11.68629150101524 21, 9 18.31370849898476, 9 15 C 9 11.68629150101524, 11.686291501015237 9, 14.999999999999998 9 C 18.31370849898476 9, 21 11.686291501015237, 21 14.999999999999998 L 21 15 Z" />
  </symbol>
  <symbol id="text" viewBox="0 0 24 24">
    <path d="M 4 6 L 20 6" />
    <path d="M 12 6 L 12 18" />
    <path d="M 8 18 L 16 18" />
  </symbol>
  <symbol id="pocket" viewBox="0 0 24 24">
    <path d="M 3 3 L 21 3 L 21 21 L 3 21 L 3 3 Z" />
    <path d="M 7 7 L 17 7 L 17 17 L 7 17 L 7 7 Z" />
    <path d="M 12 7 L 12 17" />
    <path d="M 7 12 L 17 12" />
  </symbol>
  <symbol id="edge-in" viewBox="0 0 24 24">
    <path d="M 3 3 L 21 3 L 21 21 L 3 21 L 3 3 Z" />
    <path d="M 7 7 L 17 7 L 17 17 L 7 17 L 7 7 Z" />
    <path d="M 12 7 L 10 9 L 12 11" />
    <path d="M 12 17 L 14 15 L 12 13" />
  </symbol>
  <symbol id="edge-out" viewBox="0 0 24 24">
    <path d="M 7 7 L 17 7 L 17 17 L 7 17 L 7 7 Z" />
    <path d="M 3 3 L 21 3 L 21 21 L 3 21 L 3 3 Z" />
    <path d="M 12 3 L 14 5 L 12 7" />
    <path d="M 12 21 L 10 19 L 12 17" />
  </symbol>
  <symbol id="surface" viewBox="0 0 24 24">
    <path d="M 3 12 C 5 10, 7 10, 9 12 C 11 14, 13 14, 15 12 C 17 10, 19 10, 21 12" />
    <path d="M 3 16 C 5 14, 7 14, 9 16 C 11 18, 13 18, 15 16 C 17 14, 19 14, 21 16" />
    <path d="M 3 8 C 5 6, 7 6, 9 8 C 11 10, 13 10, 15 8 C 17 6, 19 6, 21 8" />
  </symbol>
  <symbol id="project" viewBox="0 0 24 24">
    <path d="M 3 9 L 12 2 L 21 9 L 21 20 C 21 21.104569499661586, 20.104569499661586 22, 19 22 L 5 22 C 3.8954305003384135 22, 3 21.104569499661586, 3 20 L 3 9 Z" />
    <path d="M 9 22 L 9 12 L 15 12 L 15 22" />
  </symbol>
  <symbol id="grid" viewBox="0 0 24 24">
    <path d="M 3 3 L 21 3 L 21 21 L 3 21 L 3 3 Z" />
    <path d="M 3 9 L 21 9" />
    <path d="M 3 15 L 21 15" />
    <path d="M 9 3 L 9 21" />
    <path d="M 15 3 L 15 21" />
  </symbol>
  <symbol id="stock" viewBox="0 0 24 24">
    <path d="M 21 8 C 20.99926785125963 7.286201611486217, 20.618168079599407 6.6268990065141, 19.999999999999915 6.26999999999995 L 13 2.2699999999999996 C 12.381197846482994 1.912734410091835, 11.618802153517006 1.9127344100918353, 11 2.269999999999999 L 4 6.27 C 3.381831920400526 6.626899006514179, 3.000732148740333 7.286201611486314, 3.0000000000000004 7.999999999999998 L 3 16 C 3.0007321487403678 16.713798388513784, 3.3818319204005944 17.3731009934859, 4.000000000000086 17.73000000000005 L 11 21.73 C 11.618802153517006 22.087265589908164, 12.381197846482994 22.087265589908164, 13 21.73 L 20 17.73 C 20.618168079599474 17.37310099348582, 20.999267851259667 16.713798388513684, 21 16 L 21 8 Z" />
    <path d="M 3.3 7 L 12 12 L 20.7 7" />
    <path d="M 12 22 L 12 12" />
  </symbol>
  <symbol id="folder" viewBox="0 0 24 24">
    <path d="M 4 20 L 20 20 C 21.104569499661586 20, 22 19.104569499661586, 22 18 L 22 8 C 22 6.8954305003384135, 21.104569499661586 6, 20 6 L 12.07 6 C 11.400961807862833 5.996538706446693, 10.777966976598428 5.65877042443587, 10.41 5.1 L 9.59 3.8999999999999995 C 9.222033023401572 3.3412295755641295, 8.599038192137167 3.0034612935533067, 7.930000000000001 3 L 4 3 C 2.8954305003384135 3, 2 3.8954305003384135, 2 5 L 2 18 C 2 19.104569499661586, 2.8954305003384135 20, 4 20 Z" />
  </symbol>
  <symbol id="tab" viewBox="0 0 24 24">
    <path d="M 2 14 L 22 14 L 22 18 C 22 19.104569499661586, 21.104569499661586 20, 20 20 L 4 20 C 2.8954305003384135 20, 2 19.104569499661586, 2 18 L 2 14 Z" />
    <path d="M 2 14 L 6 10 L 18 10 L 22 14" />
  </symbol>
  <symbol id="clamp" viewBox="0 0 24 24">
    <path d="M 4 18 L 4 6 C 4 4.8954305003384135, 4.8954305003384135 4, 6 4 L 18 4 C 19.104569499661586 4, 20 4.8954305003384135, 20 6 L 20 18" />
    <path d="M 2 18 L 22 18 L 22 20 C 22 21.104569499661586, 21.104569499661586 22, 20 22 L 4 22 C 2.8954305003384135 22, 2 21.104569499661586, 2 20 L 2 18 Z" />
    <path d="M 14 10 C 14 11.104569499661586, 13.104569499661586 12, 12 12 C 10.895430500338414 12, 10 11.104569499661586, 10 10 C 10 8.895430500338414, 10.895430500338414 8, 12 8 C 13.104569499661586 8, 14 8.895430500338414, 14 10 Z" />
  </symbol>
  <symbol id="tool-endmill" viewBox="0 0 24 24">
    <path d="M 10 2 L 14 2 L 14 18 L 10 18 L 10 2 Z" />
    <path d="M 10 18 L 12 22 L 14 18" />
    <path d="M 10 6 L 14 6" />
    <path d="M 10 10 L 14 10" />
    <path d="M 10 14 L 14 14" />
  </symbol>
  <symbol id="tool-ballmill" viewBox="0 0 24 24">
    <path d="M 10 2 L 14 2 L 14 17 L 10 17 L 10 2 Z" />
    <path d="M 10 17 C 10 18.104569499661586, 10.895430500338414 19, 12 19 C 13.104569499661586 19, 14 18.104569499661586, 14 17" />
    <path d="M 10 6 L 14 8" />
    <path d="M 10 10 L 14 12" />
    <path d="M 10 14 L 14 16" />
  </symbol>
  <symbol id="snap" viewBox="0 0 24 24">
    <path d="M 5 5 L 9 5 L 9 12 C 9 13.65685424949238, 10.34314575050762 15, 12 15 C 13.65685424949238 15, 15 13.65685424949238, 15 12 L 15 5 L 19 5 L 19 12 C 19 15.865993248815553, 15.865993248815553 19, 12 19 C 8.134006751184447 19, 5.000000000000001 15.865993248815553, 5 12 L 5 5 Z" />
  </symbol>
  <symbol id="snap-grid" viewBox="0 0 24 24">
    <path d="M 3 3 L 7 3 L 7 7 L 3 7 L 3 3 Z" />
    <path d="M 10 3 L 14 3 L 14 7 L 10 7 L 10 3 Z" />
    <path d="M 17 3 L 21 3 L 21 7 L 17 7 L 17 3 Z" />
    <path d="M 3 10 L 7 10 L 7 14 L 3 14 L 3 10 Z" />
    <path d="M 10 10 L 14 10 L 14 14 L 10 14 L 10 10 Z" />
    <path d="M 17 10 L 21 10 L 21 14 L 17 14 L 17 10 Z" />
    <path d="M 3 17 L 7 17 L 7 21 L 3 21 L 3 17 Z" />
    <path d="M 10 17 L 14 17 L 14 21 L 10 21 L 10 17 Z" />
    <path d="M 17 17 L 21 17 L 21 21 L 17 21 L 17 17 Z" />
  </symbol>
  <symbol id="snap-point" viewBox="0 0 24 24">
    <path d="M 3 20 L 17 6" />
    <path d="M 14 3 L 20 3 L 20 9 L 14 9 L 14 3 Z" />
  </symbol>
  <symbol id="snap-line" viewBox="0 0 24 24">
    <path d="M 4 20 L 20 4" />
    <path d="M 12 8 L 16 12 L 12 16 L 8 12 L 12 8 Z" />
  </symbol>
  <symbol id="snap-midpoint" viewBox="0 0 24 24">
    <path d="M 4 20 L 20 4" />
    <path d="M 12 7.5 L 16 14.25 L 8 14.25 L 12 7.5 Z" />
  </symbol>
  <symbol id="snap-center" viewBox="0 0 24 24">
    <path d="M 19 12 C 19 15.865993248815553, 15.865993248815553 19, 12 19 C 8.134006751184447 19, 5.000000000000001 15.865993248815553, 5 12 C 4.999999999999999 8.134006751184447, 8.134006751184444 5.000000000000001, 11.999999999999998 5 C 15.865993248815553 5, 19 8.134006751184447, 19 12 Z" />
    <path d="M 12 8 L 12 16" />
    <path d="M 8 12 L 16 12" />
  </symbol>
  <symbol id="snap-perpendicular" viewBox="0 0 24 24">
    <path d="M 4 18 L 20 18" />
    <path d="M 12 18 L 12 6" />
    <path d="M 14 18 L 14 16 L 12 16" />
  </symbol>
  <symbol id="snap-all" viewBox="0 0 24 24">
    <path d="M 20 12 C 20 16.418277998646346, 16.418277998646346 20, 12 20 C 7.581722001353653 20, 4.000000000000001 16.41827799864635, 4 12.000000000000002 C 3.9999999999999996 7.581722001353655, 7.5817220013536515 4.000000000000001, 11.999999999999998 4 C 16.418277998646346 4, 20 7.581722001353653, 20 12 Z" />
    <path d="M 8.5 12 L 10.7 14.2 L 15.5 9.399999999999999" />
  </symbol>
  <symbol id="snap-none" viewBox="0 0 24 24">
    <path d="M 20 12 C 20 16.418277998646346, 16.418277998646346 20, 12 20 C 7.581722001353653 20, 4.000000000000001 16.41827799864635, 4 12.000000000000002 C 3.9999999999999996 7.581722001353655, 7.5817220013536515 4.000000000000001, 11.999999999999998 4 C 16.418277998646346 4, 20 7.581722001353653, 20 12 Z" />
    <path d="M 8 8 L 16 16" />
    <path d="M 16 8 L 8 16" />
  </symbol>
  <symbol id="eye" viewBox="0 0 24 24">
    <path d="M 1 12 C 1 12, 5 4, 12 4 C 19 4, 23 12, 23 12 C 23 12, 19 20, 12 20 C 5 20, 1 12, 1 12 Z" />
    <path d="M 15 12 C 15 13.65685424949238, 13.65685424949238 15, 12 15 C 10.34314575050762 15, 9 13.65685424949238, 9 12 C 9 10.34314575050762, 10.34314575050762 9, 12 9 C 13.65685424949238 9, 15 10.34314575050762, 15 12 Z" />
  </symbol>
  <symbol id="eye-off" viewBox="0 0 24 24">
    <path d="M 17.94 17.94 C 16.230589955982072 19.243002226518573, 14.149107466642219 19.964863157165052, 12 19.999999999999996 C 5 20, 1 12, 1 12 C 2.24388989605133 9.681895667876372, 3.9691354520768782 7.656607406455075, 6.059999999999993 6.0600000000000005" />
    <path d="M 9.9 4.24 C 10.588332302017454 4.078879512090427, 11.293064069497346 3.9983387386641533, 11.999999999999995 4 C 19 4, 23 12, 23 12 C 22.39297957282153 13.135607353311329, 21.669055414847758 14.20473608661519, 20.84000000000001 15.18999999999999" />
    <path d="M 14.120000000000001 14.12 C 13.372117678144061 14.922612710448172, 12.245777831364187 15.252996726030078, 11.182844365445819 14.98154216749705 C 10.11991089952745 14.710087608964022, 9.289912391035978 13.88008910047255, 9.01845783250295 12.817155634554181 C 8.747003273969922 11.754222168635813, 9.07738728955183 10.627882321855939, 9.880000000000003 9.879999999999999" />
    <path d="M 1 1 L 23 23" />
  </symbol>
  <symbol id="lock" viewBox="0 0 24 24">
    <path d="M 3 11 L 21 11 L 21 22 L 3 22 L 3 11 Z" />
    <path d="M 7 11 L 7 7 C 7 4.238576250846034, 9.238576250846032 2.0000000000000004, 11.999999999999998 2 C 14.761423749153964 1.9999999999999996, 17 4.238576250846032, 17 6.999999999999999 L 17 11" />
  </symbol>
  <symbol id="trash" viewBox="0 0 24 24">
    <path d="M 3 6 L 5 6 L 21 6" />
    <path d="M 19 6 L 19 20 C 19 21.104569499661586, 18.104569499661586 22, 17 22 L 7 22 C 5.8954305003384135 22, 5 21.104569499661586, 5 20 L 5 6" />
    <path d="M 8 6 L 8 4 C 8 2.8954305003384135, 8.895430500338414 2, 10 2 L 14 2 C 15.104569499661586 2, 16 2.8954305003384135, 16 4 L 16 6" />
  </symbol>
  <symbol id="copy" viewBox="0 0 24 24">
    <path d="M 9 9 L 22 9 L 22 22 L 9 22 L 9 9 Z" />
    <path d="M 5 15 L 4 15 C 2.8954305003384135 15, 2 14.104569499661586, 2 13 L 2 4 C 1.9999999999999998 2.8954305003384135, 2.8954305003384126 2, 3.9999999999999996 2 L 13 2 C 14.104569499661586 2, 15 2.8954305003384135, 15 4 L 15 5" />
  </symbol>
  <symbol id="move" viewBox="0 0 24 24">
    <path d="M 12 3 L 12 21" />
    <path d="M 3 12 L 21 12" />
    <path d="M 12 3 L 9 6" />
    <path d="M 12 3 L 15 6" />
    <path d="M 12 21 L 9 18" />
    <path d="M 12 21 L 15 18" />
    <path d="M 3 12 L 6 9" />
    <path d="M 3 12 L 6 15" />
    <path d="M 21 12 L 18 9" />
    <path d="M 21 12 L 18 15" />
  </symbol>
  <symbol id="resize" viewBox="0 0 24 24">
    <path d="M 5 19 L 19 5" />
    <path d="M 14 5 L 19 5 L 19 10" />
    <path d="M 10 19 L 5 19 L 5 14" />
    <path d="M 3 17 L 7 17 L 7 21 L 3 21 L 3 17 Z" />
    <path d="M 17 3 L 21 3 L 21 7 L 17 7 L 17 3 Z" />
  </symbol>
  <symbol id="rotate" viewBox="0 0 24 24">
    <path d="M 12 4 C 16.418277998646346 4, 20 7.581722001353653, 20 12 C 20 16.418277998646346, 16.418277998646346 20, 12 20 C 7.581722001353653 20, 4.000000000000001 16.41827799864635, 4 12.000000000000002" />
    <path d="M 1 15 L 4 12 L 7 15" />
  </symbol>
  <symbol id="refresh" viewBox="0 0 24 24">
    <path d="M 5.8 9.6 C 7.1 6.3, 10.4 4.5, 13.8 4.9 C 15.9 5.1, 17.5 6.1, 18.7 7.6" />
    <path d="M 15.9 7.6 L 18.9 7.6 L 18.9 4.6" />
    <path d="M 18.2 14.4 C 16.9 17.7, 13.6 19.5, 10.2 19.1 C 8.1 18.9, 6.5 17.9, 5.3 16.4" />
    <path d="M 8.1 16.4 L 5.1 16.4 L 5.1 19.4" />
  </symbol>
  <symbol id="point-add" viewBox="0 0 24 24">
    <path d="M 4 18 L 20 18" />
    <path d="M 14.5 18 C 14.5 19.380711874576985, 13.380711874576983 20.5, 12 20.5 C 10.619288125423017 20.5, 9.5 19.380711874576985, 9.5 18 C 9.5 16.619288125423015, 10.619288125423017 15.5, 12 15.5 C 13.380711874576983 15.5, 14.5 16.619288125423015, 14.5 18 Z" />
    <path d="M 12 4 L 12 10" />
    <path d="M 9 7 L 15 7" />
  </symbol>
  <symbol id="point-delete" viewBox="0 0 24 24">
    <path d="M 4 18 L 20 18" />
    <path d="M 14.5 18 C 14.5 19.380711874576985, 13.380711874576983 20.5, 12 20.5 C 10.619288125423017 20.5, 9.5 19.380711874576985, 9.5 18 C 9.5 16.619288125423015, 10.619288125423017 15.5, 12 15.5 C 13.380711874576983 15.5, 14.5 16.619288125423015, 14.5 18 Z" />
    <path d="M 9.5 4.5 L 14.5 9.5" />
    <path d="M 14.5 4.5 L 9.5 9.5" />
  </symbol>
  <symbol id="merge" viewBox="0 0 24 24">
    <path d="M 5 7 L 12 7 L 12 14 L 5 14 L 5 7 Z" />
    <path d="M 12 10 L 19 10 L 19 17 L 12 17 L 12 10 Z" />
    <path d="M 10 12 L 14 12" />
  </symbol>
  <symbol id="cut" viewBox="0 0 24 24">
    <path d="M 8 7 C 8 8.65685424949238, 6.65685424949238 10, 5 10 C 3.34314575050762 10, 2 8.65685424949238, 2 7 C 1.9999999999999998 5.34314575050762, 3.343145750507619 4, 4.999999999999999 4 C 6.65685424949238 3.9999999999999996, 8 5.3431457505076185, 8 6.999999999999999 L 8 7 Z" />
    <path d="M 8 17 C 8 18.65685424949238, 6.65685424949238 20, 5 20 C 3.34314575050762 20, 2 18.65685424949238, 2 17 C 1.9999999999999998 15.34314575050762, 3.343145750507619 14, 4.999999999999999 14 C 6.65685424949238 14, 8 15.34314575050762, 8 17 Z" />
    <path d="M 8 7 L 20 17" />
    <path d="M 8 17 L 20 7" />
  </symbol>
  <symbol id="offset" viewBox="0 0 24 24">
    <path d="M 5 5 L 15 5 L 15 15 L 5 15 L 5 5 Z" />
    <path d="M 9 19 L 17 19 C 18.104569499661586 19, 19 18.104569499661586, 19 17 L 19 9" />
    <path d="M 17 5 L 19 5 C 20.104569499661586 5, 21 5.8954305003384135, 21 7 L 21 9" />
  </symbol>
  <symbol id="offset-in" viewBox="0 0 24 24">
    <path d="M 4 4 L 20 4 L 20 20 L 4 20 L 4 4 Z" />
    <path d="M 8 8 L 16 8 L 16 16 L 8 16 L 8 8 Z" />
    <path d="M 12 5 L 12 9" />
    <path d="M 12 19 L 12 15" />
    <path d="M 5 12 L 9 12" />
    <path d="M 19 12 L 15 12" />
  </symbol>
  <symbol id="offset-out" viewBox="0 0 24 24">
    <path d="M 8 8 L 16 8 L 16 16 L 8 16 L 8 8 Z" />
    <path d="M 4 4 L 20 4 L 20 20 L 4 20 L 4 4 Z" />
    <path d="M 12 2 L 12 6" />
    <path d="M 12 22 L 12 18" />
    <path d="M 2 12 L 6 12" />
    <path d="M 22 12 L 18 12" />
  </symbol>
  <symbol id="fillet" viewBox="0 0 24 24">
    <path d="M 20 5 L 11 5" />
    <path d="M 11 5 C 7.68629150101524 5, 5 7.68629150101524, 5 11" />
    <path d="M 5 11 L 5 20" />
  </symbol>
  <symbol id="chevron-down" viewBox="0 0 24 24">
    <path d="M 6 9 L 12 15 L 18 9" />
  </symbol>
  <symbol id="plus" viewBox="0 0 24 24">
    <path d="M 12 5 L 12 19" />
    <path d="M 5 12 L 19 12" />
  </symbol>
  <symbol id="minus" viewBox="0 0 24 24">
    <path d="M 5 12 L 19 12" />
  </symbol>
  <symbol id="view-iso" viewBox="0 0 24 24">
    <path d="M 12 2 L 22 7 L 12 12 L 2 7 L 12 2 Z" />
    <path d="M 2 7 L 2 17 L 12 22 L 22 17 L 22 7" />
    <path d="M 12 12 L 12 22" />
  </symbol>
  <symbol id="view-top" viewBox="0 0 24 24">
    <path d="M 4 4 L 20 4 L 20 20 L 4 20 L 4 4 Z" />
    <path d="M 12 2 L 12 22" />
    <path d="M 2 12 L 22 12" />
  </symbol>
  <symbol id="view-bottom" viewBox="0 0 24 24">
    <path d="M 4 4 L 20 4 L 20 20 L 4 20 L 4 4 Z" />
    <path d="M 12 7 L 12 16" />
    <path d="M 9 13 L 12 17 L 15 13" />
  </symbol>
  <symbol id="view-front" viewBox="0 0 24 24">
    <path d="M 4 4 L 20 4 L 20 20 L 4 20 L 4 4 Z" />
    <path d="M 12 7 L 17 12 L 12 17 L 7 12 L 12 7 Z" />
  </symbol>
  <symbol id="view-back" viewBox="0 0 24 24">
    <path d="M 4 4 L 20 4 L 20 20 L 4 20 L 4 4 Z" />
    <path d="M 8 8 L 16 16" />
    <path d="M 16 8 L 8 16" />
  </symbol>
  <symbol id="view-right" viewBox="0 0 24 24">
    <path d="M 4 4 L 20 4 L 20 20 L 4 20 L 4 4 Z" />
    <path d="M 7 12 L 16 12" />
    <path d="M 13 9 L 17 12 L 13 15" />
  </symbol>
  <symbol id="view-left" viewBox="0 0 24 24">
    <path d="M 4 4 L 20 4 L 20 20 L 4 20 L 4 4 Z" />
    <path d="M 17 12 L 8 12" />
    <path d="M 11 9 L 7 12 L 11 15" />
  </symbol>
  <symbol id="play" viewBox="0 0 24 24">
    <path d="M 5 3 L 19 12 L 5 21 L 5 3 Z" />
  </symbol>
  <symbol id="pause" viewBox="0 0 24 24">
    <path d="M 6 4 L 10 4 L 10 20 L 6 20 L 6 4 Z" />
    <path d="M 14 4 L 18 4 L 18 20 L 14 20 L 14 4 Z" />
  </symbol>
  <symbol id="export" viewBox="0 0 24 24">
    <path d="M 21 15 L 21 19 C 21 20.104569499661586, 20.104569499661586 21, 19 21 L 5 21 C 3.8954305003384135 21, 3 20.104569499661586, 3 19 L 3 15" />
    <path d="M 7 10 L 12 15 L 17 10" />
    <path d="M 12 15 L 12 3" />
  </symbol>
  <symbol id="align" viewBox="0 0 24 24">
    <path d="M 12 3 L 12 21" />
    <path d="M 6 7 L 18 7" />
    <path d="M 8 12 L 16 12" />
    <path d="M 5 17 L 19 17" />
  </symbol>
  <symbol id="align-left" viewBox="0 0 24 24">
    <path d="M 3 3 L 3 21" />
    <path d="M 3 6 L 17 6 L 17 10 L 3 10" />
    <path d="M 3 14 L 21 14 L 21 18 L 3 18" />
  </symbol>
  <symbol id="align-center-horizontal" viewBox="0 0 24 24">
    <path d="M 12 3 L 12 21" />
    <path d="M 5 6 L 19 6 L 19 10 L 5 10 L 5 6 Z" />
    <path d="M 7 14 L 17 14 L 17 18 L 7 18 L 7 14 Z" />
  </symbol>
  <symbol id="align-right" viewBox="0 0 24 24">
    <path d="M 21 3 L 21 21" />
    <path d="M 7 6 L 21 6 L 21 10 L 7 10" />
    <path d="M 3 14 L 21 14 L 21 18 L 3 18" />
  </symbol>
  <symbol id="align-top" viewBox="0 0 24 24">
    <path d="M 3 3 L 21 3" />
    <path d="M 6 3 L 6 17 L 10 17 L 10 3" />
    <path d="M 14 3 L 14 21 L 18 21 L 18 3" />
  </symbol>
  <symbol id="align-center-vertical" viewBox="0 0 24 24">
    <path d="M 3 12 L 21 12" />
    <path d="M 6 5 L 10 5 L 10 19 L 6 19 L 6 5 Z" />
    <path d="M 14 7 L 18 7 L 18 17 L 14 17 L 14 7 Z" />
  </symbol>
  <symbol id="align-bottom" viewBox="0 0 24 24">
    <path d="M 3 21 L 21 21" />
    <path d="M 6 7 L 6 21 L 10 21 L 10 7" />
    <path d="M 14 3 L 14 21 L 18 21 L 18 3" />
  </symbol>
  <symbol id="distribute" viewBox="0 0 24 24">
    <path d="M 3 3 L 3 21" />
    <path d="M 12 3 L 12 21" />
    <path d="M 21 3 L 21 21" />
    <path d="M 6 12 L 9 12" />
    <path d="M 15 12 L 18 12" />
  </symbol>
  <symbol id="distribute-horizontal-gaps" viewBox="0 0 24 24">
    <path d="M 3 5 L 7 5 L 7 19 L 3 19 L 3 5 Z" />
    <path d="M 10 5 L 14 5 L 14 19 L 10 19 L 10 5 Z" />
    <path d="M 17 5 L 21 5 L 21 19 L 17 19 L 17 5 Z" />
    <path d="M 7 22 L 10 22" />
    <path d="M 14 22 L 17 22" />
  </symbol>
  <symbol id="distribute-horizontal-centers" viewBox="0 0 24 24">
    <path d="M 3 6 L 7 6 L 7 18 L 3 18 L 3 6 Z" />
    <path d="M 10 4 L 14 4 L 14 20 L 10 20 L 10 4 Z" />
    <path d="M 17 8 L 21 8 L 21 16 L 17 16 L 17 8 Z" />
    <path d="M 5 22 L 12 22" />
    <path d="M 12 22 L 19 22" />
    <path d="M 5 21 L 5 23" />
    <path d="M 12 21 L 12 23" />
    <path d="M 19 21 L 19 23" />
  </symbol>
  <symbol id="distribute-vertical-gaps" viewBox="0 0 24 24">
    <path d="M 5 3 L 19 3 L 19 7 L 5 7 L 5 3 Z" />
    <path d="M 5 10 L 19 10 L 19 14 L 5 14 L 5 10 Z" />
    <path d="M 5 17 L 19 17 L 19 21 L 5 21 L 5 17 Z" />
    <path d="M 22 7 L 22 10" />
    <path d="M 22 14 L 22 17" />
  </symbol>
  <symbol id="distribute-vertical-centers" viewBox="0 0 24 24">
    <path d="M 6 3 L 18 3 L 18 7 L 6 7 L 6 3 Z" />
    <path d="M 4 10 L 20 10 L 20 14 L 4 14 L 4 10 Z" />
    <path d="M 8 17 L 16 17 L 16 21 L 8 21 L 8 17 Z" />
    <path d="M 22 5 L 22 12" />
    <path d="M 22 12 L 22 19" />
    <path d="M 21 5 L 23 5" />
    <path d="M 21 12 L 23 12" />
    <path d="M 21 19 L 23 19" />
  </symbol>
</svg>