<svg xmlns="http://www.w3.org/2000/svg" style="display: none;">
  <symbol id="new" viewBox="0 0 24 24">
    <path d="M 14 2 L 6 2 C 4.8954305003384135 2, 4 2.8954305003384126, 4 3.9999999999999996 L 4 20 C 4 21.104569499661586, 4.8954305003384135 22, 6 22 L 18 22 C 19.104569499661586 22, 20 21.104569499661586, 20 20 L 20 8 L 14 2 Z" />
    <path d="M 14 2 L 14 8 L 20 8" />
    <path d="M 12 18 L 12 12" />
    <path d="M 9 15 L 15 15" />
  </symbol>
  <symbol id="open" viewBox="0 0 24 24">
    <path d="M 22 19 C 22 20.104569499661586, 21.104569499661586 21, 20 21 L 4 21 C 2.8954305003384135 21, 2 20.104569499661586, 2 19 L 2 5 C 1.9999999999999998 3.8954305003384135, 2.8954305003384126 3, 3.9999999999999996 3 L 9 3 L 11 6 L 20 6 C 21.104569499661586 6, 22 6.8954305003384135, 22 8 L 22 19 Z" />
  </symbol>
  <symbol id="import" viewBox="0 0 24 24">
    <path d="M 21 15 L 21 19 C 21 20.104569499661586, 20.104569499661586 21, 19 21 L 5 21 C 3.8954305003384135 21, 3 20.104569499661586, 3 19 L 3 15" />
    <path d="M 17 9 L 12 4 L 7 9" />
    <path d="M 12 4 L 12 16" />
  </symbol>
  <symbol id="save" viewBox="0 0 24 24">
    <path d="M 19 21 L 5 21 C 3.8954305003384135 21, 3 20.104569499661586, 3 19 L 3 5 C 3 3.8954305003384135, 3.8954305003384135 3, 5 3 L 16 3 L 21 8 L 21 19 C 21 20.104569499661586, 20.104569499661586 21, 19 21 Z" />
    <path d="M 17 21 L 17 13 L 7 13 L 7 21" />
    <path d="M 7 3 L 7 8 L 15 8" />
  </symbol>
  <symbol id="undo" viewBox="0 0 24 24">
    <path d="M 3 7 L 3 13 L 9 13" />
    <path d="M 21 17 C 21 12.029437251522861, 16.97056274847714 8, 12 8 C 9.785122259956267 8.002255454948946, 7.648853135222426 8.82115861943025, 6.000000000000001 10.3 L 3 13" />
  </symbol>
  <symbol id="redo" viewBox="0 0 24 24">
    <path d="M 21 7 L 21 13 L 15 13" />
    <path d="M 3 17 C 2.9999999999999996 12.029437251522861, 7.029437251522858 8.000000000000002, 11.999999999999998 8 C 14.214877740043733 8.002255454948946, 16.351146864777576 8.82115861943025, 18 10.3 L 21 13" />
  </symbol>
  <symbol id="fit" viewBox="0 0 24 24">
    <path d="M 15 3 L 21 3 L 21 9" />
    <path d="M 9 21 L 3 21 L 3 15" />
    <path d="M 21 15 L 21 21 L 15 21" />
    <path d="M 3 9 L 3 3 L 9 3" />
  </symbol>
  <symbol id="fit-window" viewBox="0 0 24 24">
    <path d="M 15 3 L 21 3 L 21 9" />
    <path d="M 9 21 L 3 21 L 3 15" />
    <path d="M 21 15 L 21 21 L 15 21" />
    <path d="M 3 9 L 3 3 L 9 3" />
    <path d="M 7 12.041666666666666 C 6.999999999999998 10.704533530392295, 7.531174070175646 9.422165886193326, 8.476669978184487 8.476669978184486 C 9.42216588619333 7.531174070175645, 10.704533530392299 6.999999999999997, 12.041666666666666 6.999999999999998 L 13.083333333333334 7 C 15.246448603503943 6.999999999999998, 17 8.753551396496057, 17 10.916666666666664 L 17 12.833333333333334 C 17 13.938402040998103, 16.561013165144093 14.998210011410473, 15.77961158827728 15.779611588277284 C 14.99821001141047 16.561013165144093, 13.938402040998099 17, 12.833333333333332 17 L 11.041666666666666 17 C 9.969750020231842 17, 8.941736288931844 16.574182770189772, 8.183776759371037 15.816223240628965 C 7.425817229810231 15.058263711068157, 7 14.030249979768158, 7 12.958333333333334 L 7 12.041666666666666 Z" />
  </symbol>
  <symbol id="select" viewBox="0 0 24 24">
    <path d="M 3 3 L 10.07 19.97 L 12.58 12.579999999999998 L 19.97 10.069999999999999 L 3 3 Z" />
    <path d="M 13 13 L 19 19" />
  </symbol>
  <symbol id="rect" viewBox="0 0 24 24">
    <path d="M 3 3 L 21 3 L 21 21 L 3 21 L 3 3 Z" />
  </symbol>
  <symbol id="circle" viewBox="0 0 24 24">
    <path d="M 22 12 C 22 17.522847498307932, 17.522847498307932 22, 12 22 C 6.477152501692067 22, 2.000000000000001 17.522847498307936, 2 12.000000000000002 C 1.9999999999999993 6.477152501692069, 6.477152501692065 2.000000000000001, 11.999999999999998 2 C 17.522847498307932 2.0000000000000004, 22 6.477152501692067, 22 12 Z" />
  </symbol>
  <symbol id="polygon" viewBox="0 0 24 24">
    <path d="M 12 2 L 21 9 L 18 21 L 6 21 L 3 9 L 12 2 Z" />
  </symbol>
  <symbol id="spline" viewBox="0 0 24 24">
    <path d="M 3 12 C 7 4, 11 20, 15 12 C 19 4, 19 4, 21 12" />
    <path d="M 4 12 C 4 12.552284749830793, 3.5522847498307932 13, 3 13 C 2.4477152501692068 13, 2 12.552284749830793, 2 12 C 2 11.447715250169207, 2.4477152501692068 11, 3 11 C 3.5522847498307932 11, 4 11.447715250169207, 4 12 Z" />
    <path d="M 10 8 C 10 8.552284749830793, 9.552284749830793 9, 9 9 C 8.447715250169207 9, 8 8.552284749830793, 8 8 C 8 7.447715250169207, 8.447715250169207 7, 9 7 C 9.552284749830793 7, 10 7.447715250169207, 10 8 Z" />
    <path d="M 16 16 C 16 16.552284749830793, 15.552284749830793 17, 15 17 C 14.447715250169207 17, 14 16.552284749830793, 14 16 C 14 15.447715250169207, 14.447715250169207 15, 15 15 C 15.552284749830793 15, 16 15.447715250169207, 16 16 Z" />
    <path d="M 22 12 C 22 12.552284749830793, 21.552284749830793 13, 21 13 C 20.447715250169207 13, 20 12.552284749830793, 20 12 C 20 11.447715250169207, 20.447715250169207 11, 21 11 C 21.552284749830793 11, 22 11.447715250169207, 22 12 Z" />
  </symbol>
  <symbol id="composite" viewBox="0 0 24 24">
    <path d="M 5 17 L 9 7 L 15 10" />
    <path d="M 15 10 C 17.2 10, 18.8 11.4, 19.5 14" />
    <path d="M 19.5 14 C 18.4 16.6, 15.9 18, 12.4 18 L 5 18" />
    <path d="M 6.1 17 C 6.1 17.60751322481387, 5.607513224813873 18.1, 5 18.1 C 4.708261861176501 18.1, 4.428472556987636 17.98410747559804, 4.2221825406947975 17.7778174593052 C 4.015892524401959 17.57152744301236, 3.8999999999999995 17.291738138823494, 3.9 16.999999999999996 C 3.9000000000000004 16.708261861176503, 4.015892524401959 16.428472556987636, 4.2221825406947975 16.2221825406948 C 4.428472556987636 16.015892524401963, 4.708261861176502 15.9, 5 15.9 C 5.291738138823498 15.9, 5.571527443012363 16.015892524401963, 5.777817459305202 16.2221825406948 C 5.98410747559804 16.428472556987636, 6.1 16.708261861176503, 6.1 17 Z" />
    <path d="M 10.1 7 C 10.100000000000001 7.291738138823498, 9.984107475598043 7.571527443012364, 9.777817459305204 7.7778174593052025 C 9.571527443012366 7.984107475598041, 9.2917381388235 8.1, 9.000000000000002 8.1 C 8.7082618611765 8.1, 8.428472556987634 7.984107475598041, 8.222182540694796 7.7778174593052025 C 8.015892524401957 7.571527443012364, 7.899999999999999 7.291738138823498, 7.899999999999999 7 C 7.899999999999999 6.708261861176502, 8.015892524401957 6.428472556987637, 8.222182540694796 6.222182540694798 C 8.428472556987634 6.01589252440196, 8.7082618611765 5.9, 8.999999999999998 5.9 C 9.2917381388235 5.9, 9.571527443012366 6.015892524401959, 9.777817459305204 6.2221825406947975 C 9.984107475598043 6.428472556987636, 10.100000000000001 6.708261861176502, 10.100000000000001 7 Z" />
    <path d="M 16.1 10 C 16.1 10.291738138823499, 15.98410747559804 10.571527443012364, 15.777817459305203 10.777817459305203 C 15.571527443012364 10.98410747559804, 15.291738138823499 11.1, 15 11.1 C 14.7082618611765 11.100000000000001, 14.428472556987634 10.984107475598043, 14.222182540694796 10.777817459305204 C 14.015892524401957 10.571527443012366, 13.899999999999999 10.2917381388235, 13.899999999999999 10.000000000000002 C 13.899999999999999 9.7082618611765, 14.015892524401957 9.428472556987634, 14.222182540694796 9.222182540694796 C 14.428472556987634 9.015892524401957, 14.7082618611765 8.899999999999999, 14.999999999999998 8.899999999999999 C 15.607513224813873 8.899999999999999, 16.1 9.392486775186125, 16.1 9.999999999999998 Z" />
  </symbol>
  <symbol id="text" viewBox="0 0 24 24">
    <path d="M 4 6 L 20 6" />
    <path d="M 12 6 L 12 18" />
    <path d="M 8 18 L 16 18" />
  </symbol>
  <symbol id="pocket" viewBox="0 0 24 24">
    <path d="M 3 3 L 21 3 L 21 21 L 3 21 L 3 3 Z" />
    <path d="M 7 7 L 17 7 L 17 17 L 7 17 L 7 7 Z" />
    <path d="M 12 7 L 12 17" />
    <path d="M 7 12 L 17 12" />
  </symbol>
  <symbol id="edge-in" viewBox="0 0 24 24">
    <path d="M 3 3 L 21 3 L 21 21 L 3 21 L 3 3 Z" />
    <path d="M 7 7 L 17 7 L 17 17 L 7 17 L 7 7 Z" />
    <path d="M 12 7 L 10 9 L 12 11" />
    <path d="M 12 17 L 14 15 L 12 13" />
  </symbol>
  <symbol id="edge-out" viewBox="0 0 24 24">
    <path d="M 7 7 L 17 7 L 17 17 L 7 17 L 7 7 Z" />
    <path d="M 3 3 L 21 3 L 21 21 L 3 21 L 3 3 Z" />
    <path d="M 12 3 L 14 5 L 12 7" />
    <path d="M 12 21 L 10 19 L 12 17" />
  </symbol>
  <symbol id="surface" viewBox="0 0 24 24">
    <path d="M 3 12 C 5 10, 7 10, 9 12 C 11 14, 13 14, 15 12 C 17 10, 19 10, 21 12" />
    <path d="M 3 16 C 5 14, 7 14, 9 16 C 11 18, 13 18, 15 16 C 17 14, 19 14, 21 16" />
    <path d="M 3 8 C 5 6, 7 6, 9 8 C 11 10, 13 10, 15 8 C 17 6, 19 6, 21 8" />
  </symbol>
  <symbol id="project" viewBox="0 0 24 24">
    <path d="M 3 9 L 12 2 L 21 9 L 21 20 C 21 21.104569499661586, 20.104569499661586 22, 19 22 L 5 22 C 3.8954305003384135 22, 3 21.104569499661586, 3 20 L 3 9 Z" />
    <path d="M 9 22 L 9 12 L 15 12 L 15 22" />
  </symbol>
  <symbol id="grid" viewBox="0 0 24 24">
    <path d="M 3 3 L 21 3 L 21 21 L 3 21 L 3 3 Z" />
    <path d="M 3 9 L 21 9" />
    <path d="M 3 15 L 21 15" />
    <path d="M 9 3 L 9 21" />
    <path d="M 15 3 L 15 21" />
  </symbol>
  <symbol id="stock" viewBox="0 0 24 24">
    <path d="M 21 8 C 20.99926785125963 7.286201611486217, 20.618168079599407 6.6268990065141, 19.999999999999915 6.26999999999995 L 13 2.2699999999999996 C 12.381197846482994 1.912734410091835, 11.618802153517006 1.9127344100918353, 11 2.269999999999999 L 4 6.27 C 3.381831920400526 6.626899006514179, 3.000732148740333 7.286201611486314, 3.0000000000000004 7.999999999999998 L 3 16 C 3.0007321487403678 16.713798388513784, 3.3818319204005944 17.3731009934859, 4.000000000000086 17.73000000000005 L 11 21.73 C 11.618802153517006 22.087265589908164, 12.381197846482994 22.087265589908164, 13 21.73 L 20 17.73 C 20.618168079599474 17.37310099348582, 20.999267851259667 16.713798388513684, 21 16 L 21 8 Z" />
    <path d="M 3.3 7 L 12 12 L 20.7 7" />
    <path d="M 12 22 L 12 12" />
  </symbol>
  <symbol id="folder" viewBox="0 0 24 24">
    <path d="M 4 20 L 20 20 C 21.104569499661586 20, 22 19.104569499661586, 22 18 L 22 8 C 22 6.8954305003384135, 21.104569499661586 6, 20 6 L 12.07 6 C 11.400961807862833 5.996538706446693, 10.777966976598428 5.65877042443587, 10.41 5.1 L 9.59 3.8999999999999995 C 9.222033023401572 3.3412295755641295, 8.599038192137167 3.0034612935533067, 7.930000000000001 3 L 4 3 C 2.8954305003384135 3, 2 3.8954305003384135, 2 5 L 2 18 C 2 19.104569499661586, 2.8954305003384135 20, 4 20 Z" />
  </symbol>
  <symbol id="tab" viewBox="0 0 24 24">
    <path d="M 2 14 L 22 14 L 22 18 C 22 19.104569499661586, 21.104569499661586 20, 20 20 L 4 20 C 2.8954305003384135 20, 2 19.104569499661586, 2 18 L 2 14 Z" />
    <path d="M 2 14 L 6 10 L 18 10 L 22 14" />
  </symbol>
  <symbol id="clamp" viewBox="0 0 24 24">
    <path d="M 4 18 L 4 6 C 4 4.8954305003384135, 4.8954305003384135 4, 6 4 L 18 4 C 19.104569499661586 4, 20 4.8954305003384135, 20 6 L 20 18" />
    <path d="M 2 18 L 22 18 L 22 20 C 22 21.104569499661586, 21.104569499661586 22, 20 22 L 4 22 C 2.8954305003384135 22, 2 21.104569499661586, 2 20 L 2 18 Z" />
    <path d="M 14 10 C 14 11.104569499661586, 13.104569499661586 12, 12 12 C 10.895430500338414 12, 10 11.104569499661586, 10 10 C 10 8.895430500338414, 10.895430500338414 8, 12 8 C 13.104569499661586 8, 14 8.895430500338414, 14 10 Z" />
  </symbol>
  <symbol id="tool-endmill" viewBox="0 0 24 24">
    <path d="M 10 2 L 14 2 L 14 18 L 10 18 L 10 2 Z" />
    <path d="M 10 18 L 12 22 L 14 18" />
    <path d="M 10 6 L 14 6" />
    <path d="M 10 10 L 14 10" />
    <path d="M 10 14 L 14 14" />
  </symbol>
  <symbol id="tool-ballmill" viewBox="0 0 24 24">
    <path d="M 10 2 L 14 2 L 14 17 L 10 17 L 10 2 Z" />
    <path d="M 10 17 C 10 18.104569499661586, 10.895430500338414 19, 12 19 C 13.104569499661586 19, 14 18.104569499661586, 14 17" />
    <path d="M 10 6 L 14 8" />
    <path d="M 10 10 L 14 12" />
    <path d="M 10 14 L 14 16" />
  </symbol>
  <symbol id="snap" viewBox="0 0 24 24">
    <path d="M 12 3 L 12 9" />
    <path d="M 12 15 L 12 21" />
    <path d="M 3 12 L 9 12" />
    <path d="M 15 12 L 21 12" />
    <path d="M 15 12 C 15 13.65685424949238, 13.65685424949238 15, 12 15 C 10.34314575050762 15, 9 13.65685424949238, 9 12 C 9 10.34314575050762, 10.34314575050762 9, 12 9 C 13.65685424949238 9, 15 10.34314575050762, 15 12 Z" />
  </symbol>
  <symbol id="snap-grid" viewBox="0 0 24 24">
    <path d="M 4 4 L 20 4 L 20 20 L 4 20 L 4 4 Z" />
    <path d="M 4 10 L 20 10" />
    <path d="M 10 4 L 10 20" />
    <path d="M 14.2 12 C 14.2 12.583476277646996, 13.96821495119608 13.143054886024728, 13.555634918610403 13.555634918610405 C 13.143054886024727 13.968214951196082, 12.583476277646996 14.2, 12 14.2 C 11.416523722353004 14.2, 10.856945113975273 13.968214951196082, 10.444365081389597 13.555634918610405 C 10.03178504880392 13.143054886024728, 9.8 12.583476277646996, 9.8 12 C 9.8 11.416523722353004, 10.031785048803918 10.856945113975273, 10.444365081389595 10.444365081389597 C 10.856945113975272 10.03178504880392, 11.416523722353004 9.8, 12 9.8 C 12.583476277646996 9.8, 13.143054886024727 10.031785048803918, 13.555634918610403 10.444365081389595 C 13.96821495119608 10.856945113975272, 14.2 11.416523722353004, 14.2 12 Z" />
  </symbol>
  <symbol id="snap-point" viewBox="0 0 24 24">
    <path d="M 12 4 L 12 8" />
    <path d="M 12 16 L 12 20" />
    <path d="M 4 12 L 8 12" />
    <path d="M 16 12 L 20 12" />
    <path d="M 14.4 12 C 14.4 13.325483399593905, 13.325483399593905 14.4, 12 14.4 C 10.674516600406095 14.4, 9.6 13.325483399593905, 9.6 12 C 9.6 10.674516600406095, 10.674516600406095 9.6, 12 9.6 C 13.325483399593905 9.6, 14.4 10.674516600406095, 14.4 12 Z" />
  </symbol>
  <symbol id="snap-line" viewBox="0 0 24 24">
    <path d="M 4 18 L 20 8" />
    <path d="M 10 6 L 10 11" />
    <path d="M 10 11 L 13 13" />
    <path d="M 15.1 13 C 15.1 14.159797974644666, 14.159797974644666 15.1, 13 15.1 C 11.840202025355334 15.1, 10.9 14.159797974644666, 10.9 13 C 10.9 11.840202025355334, 11.840202025355334 10.9, 13 10.9 C 14.159797974644666 10.9, 15.1 11.840202025355334, 15.1 13 Z" />
  </symbol>
  <symbol id="snap-midpoint" viewBox="0 0 24 24">
    <path d="M 5 18 L 19 6" />
    <path d="M 6.2 18 C 6.2 18.318259787807456, 6.073571791561498 18.623484483286216, 5.848528137423857 18.84852813742386 C 5.623484483286216 19.073571791561502, 5.3182597878074525 19.200000000000003, 5 19.200000000000003 C 4.3372583002030485 19.2, 3.8000000000000007 18.662741699796953, 3.8 18 C 3.8 17.681740212192544, 3.926428208438501 17.376515516713784, 4.151471862576143 17.15147186257614 C 4.376515516713784 16.926428208438498, 4.6817402121925475 16.799999999999997, 5 16.799999999999997 C 5.6627416997969515 16.8, 6.2 17.337258300203047, 6.2 18 Z" />
    <path d="M 20.2 6 C 20.2 6.6627416997969515, 19.662741699796953 7.199999999999999, 19 7.2 C 18.681740212192544 7.2, 18.376515516713784 7.073571791561498, 18.15147186257614 6.848528137423857 C 17.926428208438498 6.623484483286216, 17.799999999999997 6.3182597878074525, 17.799999999999997 6 C 17.8 5.3372583002030485, 18.337258300203047 4.800000000000001, 19 4.8 C 19.318259787807456 4.8, 19.623484483286216 4.926428208438502, 19.84852813742386 5.151471862576143 C 20.073571791561502 5.376515516713784, 20.200000000000003 5.6817402121925475, 20.200000000000003 6 Z" />
    <path d="M 12 9.5 L 14.5 12 L 12 14.5 L 9.5 12 L 12 9.5 Z" />
  </symbol>
  <symbol id="snap-center" viewBox="0 0 24 24">
    <path d="M 19 12 C 19 15.865993248815553, 15.865993248815553 19, 12 19 C 8.134006751184447 19, 5.000000000000001 15.865993248815553, 5 12 C 4.999999999999999 8.134006751184447, 8.134006751184444 5.000000000000001, 11.999999999999998 5 C 15.865993248815553 5, 19 8.134006751184447, 19 12 Z" />
    <path d="M 12 8 L 12 16" />
    <path d="M 8 12 L 16 12" />
  </symbol>
  <symbol id="snap-perpendicular" viewBox="0 0 24 24">
    <path d="M 6 18 L 18 6" />
    <path d="M 10 14 L 14 14 L 14 10" />
    <path d="M 11.6 14 C 11.600000000000001 14.424346383743272, 11.431429055415332 14.831312644381622, 11.131370849898477 15.131370849898477 C 10.831312644381622 15.431429055415332, 10.424346383743272 15.600000000000001, 10.000000000000002 15.600000000000001 C 9.575653616256728 15.600000000000001, 9.168687355618378 15.431429055415332, 8.868629150101523 15.131370849898477 C 8.568570944584668 14.831312644381622, 8.399999999999999 14.424346383743272, 8.399999999999999 14.000000000000002 C 8.399999999999999 13.575653616256728, 8.568570944584668 13.168687355618378, 8.868629150101523 12.868629150101523 C 9.168687355618378 12.568570944584668, 9.575653616256728 12.399999999999999, 9.999999999999998 12.399999999999999 C 10.424346383743272 12.399999999999999, 10.831312644381622 12.568570944584668, 11.131370849898477 12.868629150101523 C 11.431429055415332 13.168687355618378, 11.600000000000001 13.575653616256728, 11.600000000000001 13.999999999999998 Z" />
  </symbol>
  <symbol id="snap-all" viewBox="0 0 24 24">
    <path d="M 20 12 C 20 16.418277998646346, 16.418277998646346 20, 12 20 C 7.581722001353653 20, 4.000000000000001 16.41827799864635, 4 12.000000000000002 C 3.9999999999999996 7.581722001353655, 7.5817220013536515 4.000000000000001, 11.999999999999998 4 C 16.418277998646346 4, 20 7.581722001353653, 20 12 Z" />
    <path d="M 8.5 12 L 10.7 14.2 L 15.5 9.399999999999999" />
  </symbol>
  <symbol id="snap-none" viewBox="0 0 24 24">
    <path d="M 20 12 C 20 16.418277998646346, 16.418277998646346 20, 12 20 C 7.581722001353653 20, 4.000000000000001 16.41827799864635, 4 12.000000000000002 C 3.9999999999999996 7.581722001353655, 7.5817220013536515 4.000000000000001, 11.999999999999998 4 C 16.418277998646346 4, 20 7.581722001353653, 20 12 Z" />
    <path d="M 8 8 L 16 16" />
    <path d="M 16 8 L 8 16" />
  </symbol>
  <symbol id="eye" viewBox="0 0 24 24">
    <path d="M 1 12 C 1 12, 5 4, 12 4 C 19 4, 23 12, 23 12 C 23 12, 19 20, 12 20 C 5 20, 1 12, 1 12 Z" />
    <path d="M 15 12 C 15 13.65685424949238, 13.65685424949238 15, 12 15 C 10.34314575050762 15, 9 13.65685424949238, 9 12 C 9 10.34314575050762, 10.34314575050762 9, 12 9 C 13.65685424949238 9, 15 10.34314575050762, 15 12 Z" />
  </symbol>
  <symbol id="eye-off" viewBox="0 0 24 24">
    <path d="M 17.94 17.94 C 16.230589955982072 19.243002226518573, 14.149107466642219 19.964863157165052, 12 19.999999999999996 C 5 20, 1 12, 1 12 C 2.24388989605133 9.681895667876372, 3.9691354520768782 7.656607406455075, 6.059999999999993 6.0600000000000005" />
    <path d="M 9.9 4.24 C 10.588332302017454 4.078879512090427, 11.293064069497346 3.9983387386641533, 11.999999999999995 4 C 19 4, 23 12, 23 12 C 22.39297957282153 13.135607353311329, 21.669055414847758 14.20473608661519, 20.84000000000001 15.18999999999999" />
    <path d="M 14.120000000000001 14.12 C 13.372117678144061 14.922612710448172, 12.245777831364187 15.252996726030078, 11.182844365445819 14.98154216749705 C 10.11991089952745 14.710087608964022, 9.289912391035978 13.88008910047255, 9.01845783250295 12.817155634554181 C 8.747003273969922 11.754222168635813, 9.07738728955183 10.627882321855939, 9.880000000000003 9.879999999999999" />
    <path d="M 1 1 L 23 23" />
  </symbol>
  <symbol id="lock" viewBox="0 0 24 24">
    <path d="M 3 11 L 21 11 L 21 22 L 3 22 L 3 11 Z" />
    <path d="M 7 11 L 7 7 C 7 4.238576250846034, 9.238576250846032 2.0000000000000004, 11.999999999999998 2 C 14.761423749153964 1.9999999999999996, 17 4.238576250846032, 17 6.999999999999999 L 17 11" />
  </symbol>
  <symbol id="trash" viewBox="0 0 24 24">
    <path d="M 3 6 L 5 6 L 21 6" />
    <path d="M 19 6 L 19 20 C 19 21.104569499661586, 18.104569499661586 22, 17 22 L 7 22 C 5.8954305003384135 22, 5 21.104569499661586, 5 20 L 5 6" />
    <path d="M 8 6 L 8 4 C 8 2.8954305003384135, 8.895430500338414 2, 10 2 L 14 2 C 15.104569499661586 2, 16 2.8954305003384135, 16 4 L 16 6" />
  </symbol>
  <symbol id="copy" viewBox="0 0 24 24">
    <path d="M 9 9 L 22 9 L 22 22 L 9 22 L 9 9 Z" />
    <path d="M 5 15 L 4 15 C 2.8954305003384135 15, 2 14.104569499661586, 2 13 L 2 4 C 1.9999999999999998 2.8954305003384135, 2.8954305003384126 2, 3.9999999999999996 2 L 13 2 C 14.104569499661586 2, 15 2.8954305003384135, 15 4 L 15 5" />
  </symbol>
  <symbol id="move" viewBox="0 0 24 24">
    <path d="M 12 3 L 12 21" />
    <path d="M 3 12 L 21 12" />
    <path d="M 12 3 L 9 6" />
    <path d="M 12 3 L 15 6" />
    <path d="M 12 21 L 9 18" />
    <path d="M 12 21 L 15 18" />
    <path d="M 3 12 L 6 9" />
    <path d="M 3 12 L 6 15" />
    <path d="M 21 12 L 18 9" />
    <path d="M 21 12 L 18 15" />
  </symbol>
  <symbol id="resize" viewBox="0 0 24 24">
    <path d="M 5 19 L 19 5" />
    <path d="M 14 5 L 19 5 L 19 10" />
    <path d="M 10 19 L 5 19 L 5 14" />
    <path d="M 3 17 L 7 17 L 7 21 L 3 21 L 3 17 Z" />
    <path d="M 17 3 L 21 3 L 21 7 L 17 7 L 17 3 Z" />
  </symbol>
  <symbol id="rotate" viewBox="0 0 24 24">
    <path d="M 18.5 8.5 C 18.647369179638176 11.969770687469317, 16.393348246845726 15.086879233643117, 13.052085905066738 16.033975988013093 C 9.710823563287752 16.98107274238307, 6.156374877012253 15.51040262616711, 4.461069372807941 12.479401876226078 C 2.7657638686036297 9.448401126285043, 3.373083742788754 5.649962154218223, 5.9289468244193895 3.2986667226133166 C 8.484809906050025 0.9473712910084111, 12.320617072360816 0.6583047987007322, 15.199999999999994 2.5999999999999943" />
    <path d="M 18.7 3.8 L 18.7 9 L 13.5 9" />
    <path d="M 8.1 8.2 L 15.3 10.1 L 13.4 17.3 L 6.2 15.4 L 8.1 8.2 Z" />
    <path d="M 14.7 5.6 L 17.8 4.4 L 19 7.5" />
  </symbol>
  <symbol id="point-add" viewBox="0 0 24 24">
    <path d="M 4 17 L 20 7" />
    <path d="M 14.4 12 C 14.4 13.325483399593905, 13.325483399593905 14.4, 12 14.4 C 10.674516600406095 14.4, 9.6 13.325483399593905, 9.6 12 C 9.6 10.674516600406095, 10.674516600406095 9.6, 12 9.6 C 13.325483399593905 9.6, 14.4 10.674516600406095, 14.4 12 Z" />
    <path d="M 12 8 L 12 16" />
    <path d="M 8 12 L 16 12" />
  </symbol>
  <symbol id="point-delete" viewBox="0 0 24 24">
    <path d="M 4 17 L 20 7" />
    <path d="M 14.4 12 C 14.4 13.325483399593905, 13.325483399593905 14.4, 12 14.4 C 10.674516600406095 14.4, 9.6 13.325483399593905, 9.6 12 C 9.6 10.674516600406095, 10.674516600406095 9.6, 12 9.6 C 13.325483399593905 9.6, 14.4 10.674516600406095, 14.4 12 Z" />
    <path d="M 8.5 8.5 L 15.5 15.5" />
    <path d="M 15.5 8.5 L 8.5 15.5" />
  </symbol>
  <symbol id="merge" viewBox="0 0 24 24">
    <path d="M 5 7 L 12 7 L 12 14 L 5 14 L 5 7 Z" />
    <path d="M 12 10 L 19 10 L 19 17 L 12 17 L 12 10 Z" />
    <path d="M 10 12 L 14 12" />
  </symbol>
  <symbol id="cut" viewBox="0 0 24 24">
    <path d="M 5 7 L 12 7 L 12 17 L 5 17 L 5 7 Z" />
    <path d="M 12 9 L 19 9 L 19 17 L 12 17" />
    <path d="M 14 6 L 20 18" />
  </symbol>
  <symbol id="offset" viewBox="0 0 24 24">
    <path d="M 5 5 L 15 5 L 15 15 L 5 15 L 5 5 Z" />
    <path d="M 9 19 L 17 19 C 18.104569499661586 19, 19 18.104569499661586, 19 17 L 19 9" />
    <path d="M 17 5 L 19 5 C 20.104569499661586 5, 21 5.8954305003384135, 21 7 L 21 9" />
  </symbol>
  <symbol id="offset-in" viewBox="0 0 24 24">
    <path d="M 4 4 L 20 4 L 20 20 L 4 20 L 4 4 Z" />
    <path d="M 8 8 L 16 8 L 16 16 L 8 16 L 8 8 Z" />
    <path d="M 12 5 L 12 9" />
    <path d="M 12 19 L 12 15" />
    <path d="M 5 12 L 9 12" />
    <path d="M 19 12 L 15 12" />
  </symbol>
  <symbol id="offset-out" viewBox="0 0 24 24">
    <path d="M 8 8 L 16 8 L 16 16 L 8 16 L 8 8 Z" />
    <path d="M 4 4 L 20 4 L 20 20 L 4 20 L 4 4 Z" />
    <path d="M 12 2 L 12 6" />
    <path d="M 12 22 L 12 18" />
    <path d="M 2 12 L 6 12" />
    <path d="M 22 12 L 18 12" />
  </symbol>
  <symbol id="fillet" viewBox="0 0 24 24">
    <path d="M 5 18 L 5 8 L 15 8" />
    <path d="M 8 18 C 11.865993248815553 18, 15 14.865993248815553, 15 11" />
    <path d="M 16.1 8 C 16.1 8.291738138823499, 15.98410747559804 8.571527443012364, 15.777817459305203 8.777817459305203 C 15.571527443012364 8.98410747559804, 15.291738138823499 9.1, 15 9.1 C 14.7082618611765 9.100000000000001, 14.428472556987634 8.984107475598043, 14.222182540694796 8.777817459305204 C 14.015892524401957 8.571527443012366, 13.899999999999999 8.2917381388235, 13.899999999999999 8.000000000000002 C 13.899999999999999 7.708261861176502, 14.015892524401957 7.428472556987637, 14.222182540694796 7.222182540694798 C 14.428472556987634 7.01589252440196, 14.7082618611765 6.9, 14.999999999999998 6.9 C 15.607513224813873 6.9, 16.1 7.392486775186127, 16.1 8 Z" />
    <path d="M 9.1 18 C 9.100000000000001 18.60751322481387, 8.607513224813875 19.1, 8.000000000000002 19.1 C 7.708261861176501 19.1, 7.428472556987636 18.98410747559804, 7.2221825406947975 18.7778174593052 C 7.015892524401959 18.57152744301236, 6.8999999999999995 18.291738138823494, 6.9 17.999999999999996 C 6.9 17.39248677518613, 7.392486775186128 16.9, 8 16.9 C 8.291738138823499 16.9, 8.571527443012364 17.01589252440196, 8.777817459305203 17.2221825406948 C 8.98410747559804 17.42847255698764, 9.1 17.708261861176506, 9.1 18.000000000000004 Z" />
  </symbol>
  <symbol id="chevron-down" viewBox="0 0 24 24">
    <path d="M 6 9 L 12 15 L 18 9" />
  </symbol>
  <symbol id="plus" viewBox="0 0 24 24">
    <path d="M 12 5 L 12 19" />
    <path d="M 5 12 L 19 12" />
  </symbol>
  <symbol id="minus" viewBox="0 0 24 24">
    <path d="M 5 12 L 19 12" />
  </symbol>
  <symbol id="view-iso" viewBox="0 0 24 24">
    <path d="M 12 2 L 22 7 L 12 12 L 2 7 L 12 2 Z" />
    <path d="M 2 7 L 2 17 L 12 22 L 22 17 L 22 7" />
    <path d="M 12 12 L 12 22" />
  </symbol>
  <symbol id="view-top" viewBox="0 0 24 24">
    <path d="M 4 4 L 20 4 L 20 20 L 4 20 L 4 4 Z" />
    <path d="M 12 2 L 12 22" />
    <path d="M 2 12 L 22 12" />
  </symbol>
  <symbol id="view-bottom" viewBox="0 0 24 24">
    <path d="M 4 4 L 20 4 L 20 20 L 4 20 L 4 4 Z" />
    <path d="M 12 7 L 12 16" />
    <path d="M 9 13 L 12 17 L 15 13" />
  </symbol>
  <symbol id="view-front" viewBox="0 0 24 24">
    <path d="M 4 4 L 20 4 L 20 20 L 4 20 L 4 4 Z" />
    <path d="M 12 7 L 17 12 L 12 17 L 7 12 L 12 7 Z" />
  </symbol>
  <symbol id="view-back" viewBox="0 0 24 24">
    <path d="M 4 4 L 20 4 L 20 20 L 4 20 L 4 4 Z" />
    <path d="M 8 8 L 16 16" />
    <path d="M 16 8 L 8 16" />
  </symbol>
  <symbol id="view-right" viewBox="0 0 24 24">
    <path d="M 4 4 L 20 4 L 20 20 L 4 20 L 4 4 Z" />
    <path d="M 7 12 L 16 12" />
    <path d="M 13 9 L 17 12 L 13 15" />
  </symbol>
  <symbol id="view-left" viewBox="0 0 24 24">
    <path d="M 4 4 L 20 4 L 20 20 L 4 20 L 4 4 Z" />
    <path d="M 17 12 L 8 12" />
    <path d="M 11 9 L 7 12 L 11 15" />
  </symbol>
  <symbol id="play" viewBox="0 0 24 24">
    <path d="M 5 3 L 19 12 L 5 21 L 5 3 Z" />
  </symbol>
  <symbol id="pause" viewBox="0 0 24 24">
    <path d="M 6 4 L 10 4 L 10 20 L 6 20 L 6 4 Z" />
    <path d="M 14 4 L 18 4 L 18 20 L 14 20 L 14 4 Z" />
  </symbol>
  <symbol id="export" viewBox="0 0 24 24">
    <path d="M 21 15 L 21 19 C 21 20.104569499661586, 20.104569499661586 21, 19 21 L 5 21 C 3.8954305003384135 21, 3 20.104569499661586, 3 19 L 3 15" />
    <path d="M 7 10 L 12 15 L 17 10" />
    <path d="M 12 15 L 12 3" />
  </symbol>
</svg>