<svg xmlns="http://www.w3.org/2000/svg" style="display: none;">
  <!-- File Operations -->
  <symbol id="new" viewBox="0 0 24 24">
    <path d="M14 2H6a2 2 0 0 0-2 2v16a2 2 0 0 0 2 2h12a2 2 0 0 0 2-2V8z"/>
    <polyline points="14 2 14 8 20 8"/>
    <line x1="12" y1="18" x2="12" y2="12"/>
    <line x1="9" y1="15" x2="15" y2="15"/>
  </symbol>
  <symbol id="open" viewBox="0 0 24 24">
    <path d="M22 19a2 2 0 0 1-2 2H4a2 2 0 0 1-2-2V5a2 2 0 0 1 2-2h5l2 3h9a2 2 0 0 1 2 2z"/>
  </symbol>
  <symbol id="import" viewBox="0 0 24 24">
    <path d="M21 15v4a2 2 0 0 1-2 2H5a2 2 0 0 1-2-2v-4"/>
    <polyline points="17 9 12 4 7 9"/>
    <line x1="12" y1="4" x2="12" y2="16"/>
  </symbol>
  <symbol id="save" viewBox="0 0 24 24">
    <path d="M19 21H5a2 2 0 0 1-2-2V5a2 2 0 0 1 2-2h11l5 5v11a2 2 0 0 1-2 2z"/>
    <polyline points="17 21 17 13 7 13 7 21"/>
    <polyline points="7 3 7 8 15 8"/>
  </symbol>

  <!-- History & Navigation -->
  <symbol id="undo" viewBox="0 0 24 24">
    <path d="M3 7v6h6"/>
    <path d="M21 17a9 9 0 0 0-9-9 9 9 0 0 0-6 2.3L3 13"/>
  </symbol>
  <symbol id="redo" viewBox="0 0 24 24">
    <path d="M21 7v6h-6"/>
    <path d="M3 17a9 9 0 0 1 9-9 9 9 0 0 1 6 2.3l3 2.7"/>
  </symbol>
  <symbol id="fit" viewBox="0 0 24 24">
    <path d="M15 3h6v6M9 21H3v-6M21 15v6h-6M3 9V3h6"/>
  </symbol>
  <symbol id="fit-window" viewBox="0 0 24 24">
    <path d="M15 3h6v6M9 21H3v-6M21 15v6h-6M3 9V3h6"/>
    <rect x="7" y="7" width="10" height="10" rx="1" opacity="0.45"/>
  </symbol>

  <!-- Drawing Tools -->
  <symbol id="select" viewBox="0 0 24 24">
    <path d="m3 3 7.07 16.97 2.51-7.39 7.39-2.51L3 3z"/>
    <path d="m13 13 6 6"/>
  </symbol>
  <symbol id="rect" viewBox="0 0 24 24">
    <rect x="3" y="3" width="18" height="18" rx="2" ry="2"/>
  </symbol>
  <symbol id="circle" viewBox="0 0 24 24">
    <circle cx="12" cy="12" r="10"/>
  </symbol>
  <symbol id="polygon" viewBox="0 0 24 24">
    <path d="M12 2l9 7-3 12H6L3 9l9-7z"/>
  </symbol>
  <symbol id="spline" viewBox="0 0 24 24">
    <path d="M3 12c4-8 8 8 12 0s4-8 6 0"/>
    <circle cx="3" cy="12" r="1"/>
    <circle cx="9" cy="8" r="1"/>
    <circle cx="15" cy="16" r="1"/>
    <circle cx="21" cy="12" r="1"/>
  </symbol>
  <symbol id="composite" viewBox="0 0 24 24">
    <path d="M5 17 9 7l6 3"/>
    <path d="M15 10c2.2 0 3.8 1.4 4.5 4"/>
    <path d="M19.5 14c-1.1 2.6-3.6 4-7.1 4H5"/>
    <circle cx="5" cy="17" r="1.1"/>
    <circle cx="9" cy="7" r="1.1"/>
    <circle cx="15" cy="10" r="1.1"/>
  </symbol>
  <symbol id="text" viewBox="0 0 24 24">
    <path d="M4 6h16"/>
    <path d="M12 6v12"/>
    <path d="M8 18h8"/>
  </symbol>

  <!-- CAM Operations -->
  <symbol id="pocket" viewBox="0 0 24 24">
    <rect x="3" y="3" width="18" height="18" rx="2"/>
    <rect x="7" y="7" width="10" height="10" rx="1" opacity="0.5"/>
    <path d="M12 7v10M7 12h10" opacity="0.3"/>
  </symbol>
  <symbol id="edge-in" viewBox="0 0 24 24">
    <rect x="3" y="3" width="18" height="18" rx="2"/>
    <path d="M7 7h10v10H7z" opacity="0.5"/>
    <path d="M12 7l-2 2 2 2m0 6l2-2-2-2"/>
  </symbol>
  <symbol id="edge-out" viewBox="0 0 24 24">
    <rect x="7" y="7" width="10" height="10" rx="1"/>
    <path d="M3 3h18v18H3z" opacity="0.3"/>
    <path d="M12 3l2 2-2 2m0 14l-2-2 2-2"/>
  </symbol>
  <symbol id="surface" viewBox="0 0 24 24">
    <path d="M3 12c2-2 4-2 6 0s4 2 6 0 4-2 6 0"/>
    <path d="M3 16c2-2 4-2 6 0s4 2 6 0 4-2 6 0" opacity="0.6"/>
    <path d="M3 8c2-2 4-2 6 0s4 2 6 0 4-2 6 0" opacity="0.6"/>
  </symbol>

  <!-- Tree & Management -->
  <symbol id="project" viewBox="0 0 24 24">
    <path d="M3 9l9-7 9 7v11a2 2 0 0 1-2 2H5a2 2 0 0 1-2-2z"/>
    <polyline points="9 22 9 12 15 12 15 22"/>
  </symbol>
  <symbol id="grid" viewBox="0 0 24 24">
    <rect x="3" y="3" width="18" height="18" rx="2" ry="2"/>
    <line x1="3" y1="9" x2="21" y2="9"/>
    <line x1="3" y1="15" x2="21" y2="15"/>
    <line x1="9" y1="3" x2="9" y2="21"/>
    <line x1="15" y1="3" x2="15" y2="21"/>
  </symbol>
  <symbol id="stock" viewBox="0 0 24 24">
    <path d="M21 8a2 2 0 0 0-1-1.73l-7-4a2 2 0 0 0-2 0l-7 4A2 2 0 0 0 3 8v8a2 2 0 0 0 1 1.73l7 4a2 2 0 0 0 2 0l7-4A2 2 0 0 0 21 16Z"/>
    <path d="m3.3 7 8.7 5 8.7-5"/>
    <path d="M12 22V12"/>
  </symbol>
  <symbol id="folder" viewBox="0 0 24 24">
    <path d="M4 20h16a2 2 0 0 0 2-2V8a2 2 0 0 0-2-2h-7.93a2 2 0 0 1-1.66-.9l-.82-1.2A2 2 0 0 0 7.93 3H4a2 2 0 0 0-2 2v13a2 2 0 0 0 2 2Z"/>
  </symbol>
  <symbol id="tab" viewBox="0 0 24 24">
    <path d="M2 14h20v4a2 2 0 0 1-2 2H4a2 2 0 0 1-2-2v-4z"/>
    <path d="M2 14l4-4h12l4 4" opacity="0.5"/>
  </symbol>
  <symbol id="clamp" viewBox="0 0 24 24">
    <path d="M4 18V6a2 2 0 0 1 2-2h12a2 2 0 0 1 2 2v12"/>
    <path d="M2 18h20v2a2 2 0 0 1-2 2H4a2 2 0 0 1-2-2v-2z"/>
    <circle cx="12" cy="10" r="2" opacity="0.5"/>
  </symbol>

  <!-- Tools -->
  <symbol id="tool-endmill" viewBox="0 0 24 24">
    <path d="M10 2h4v16h-4z"/>
    <path d="M10 18l2 4 2-4"/>
    <path d="M10 6h4m-4 4h4m-4 4h4" opacity="0.5"/>
  </symbol>
  <symbol id="tool-ballmill" viewBox="0 0 24 24">
    <path d="M10 2h4v15h-4z"/>
    <path d="M10 17a2 2 0 0 0 4 0"/>
    <path d="M10 6l4 2m-4 2l4 2m-4 2l4 2" opacity="0.5"/>
  </symbol>

  <!-- Snapping -->
  <symbol id="snap" viewBox="0 0 24 24">
    <path d="M12 3v6"/>
    <path d="M12 15v6"/>
    <path d="M3 12h6"/>
    <path d="M15 12h6"/>
    <circle cx="12" cy="12" r="3"/>
  </symbol>
  <symbol id="snap-grid" viewBox="0 0 24 24">
    <rect x="4" y="4" width="16" height="16" rx="2"/>
    <path d="M4 10h16M10 4v16" opacity="0.45"/>
    <circle cx="12" cy="12" r="2.2"/>
  </symbol>
  <symbol id="snap-point" viewBox="0 0 24 24">
    <path d="M12 4v4M12 16v4M4 12h4M16 12h4" opacity="0.5"/>
    <circle cx="12" cy="12" r="2.4"/>
  </symbol>
  <symbol id="snap-line" viewBox="0 0 24 24">
    <path d="M4 18 20 8"/>
    <path d="M10 6v5" opacity="0.45"/>
    <path d="M10 11 13 13" opacity="0.45"/>
    <circle cx="13" cy="13" r="2.1"/>
  </symbol>
  <symbol id="snap-midpoint" viewBox="0 0 24 24">
    <path d="M5 18 19 6"/>
    <circle cx="5" cy="18" r="1.2" opacity="0.45"/>
    <circle cx="19" cy="6" r="1.2" opacity="0.45"/>
    <path d="M12 9.5 14.5 12 12 14.5 9.5 12Z"/>
  </symbol>
  <symbol id="snap-center" viewBox="0 0 24 24">
    <circle cx="12" cy="12" r="7"/>
    <path d="M12 8v8M8 12h8"/>
  </symbol>
  <symbol id="snap-perpendicular" viewBox="0 0 24 24">
    <path d="M6 18 18 6"/>
    <path d="M10 14h4v-4"/>
    <circle cx="10" cy="14" r="1.6"/>
  </symbol>
  <symbol id="snap-all" viewBox="0 0 24 24">
    <circle cx="12" cy="12" r="8"/>
    <path d="m8.5 12 2.2 2.2 4.8-4.8"/>
  </symbol>
  <symbol id="snap-none" viewBox="0 0 24 24">
    <circle cx="12" cy="12" r="8"/>
    <path d="M8 8l8 8M16 8l-8 8"/>
  </symbol>

  <!-- UI Elements -->
  <symbol id="eye" viewBox="0 0 24 24">
    <path d="M1 12s4-8 11-8 11 8 11 8-4 8-11 8-11-8-11-8z"/>
    <circle cx="12" cy="12" r="3"/>
  </symbol>
  <symbol id="eye-off" viewBox="0 0 24 24">
    <path d="M17.94 17.94A10.07 10.07 0 0 1 12 20c-7 0-11-8-11-8a18.45 18.45 0 0 1 5.06-5.94M9.9 4.24A9.12 9.12 0 0 1 12 4c7 0 11 8 11 8a18.5 18.5 0 0 1-2.16 3.19m-6.72-1.07a3 3 0 1 1-4.24-4.24"/>
    <line x1="1" y1="1" x2="23" y2="23"/>
  </symbol>
  <symbol id="lock" viewBox="0 0 24 24">
    <rect x="3" y="11" width="18" height="11" rx="2" ry="2"/>
    <path d="M7 11V7a5 5 0 0 1 10 0v4"/>
  </symbol>
  <symbol id="trash" viewBox="0 0 24 24">
    <polyline points="3 6 5 6 21 6"/>
    <path d="M19 6v14a2 2 0 0 1-2 2H7a2 2 0 0 1-2-2V6m3 0V4a2 2 0 0 1 2-2h4a2 2 0 0 1 2 2v2"/>
  </symbol>
  <symbol id="copy" viewBox="0 0 24 24">
    <rect x="9" y="9" width="13" height="13" rx="2" ry="2"/>
    <path d="M5 15H4a2 2 0 0 1-2-2V4a2 2 0 0 1 2-2h9a2 2 0 0 1 2 2v1"/>
  </symbol>
  <symbol id="move" viewBox="0 0 24 24">
    <path d="M12 3v18"/>
    <path d="M3 12h18"/>
    <path d="m12 3-3 3m3-3 3 3"/>
    <path d="m12 21-3-3m3 3 3-3"/>
    <path d="m3 12 3-3m-3 3 3 3"/>
    <path d="m21 12-3-3m3 3-3 3"/>
  </symbol>
  <symbol id="resize" viewBox="0 0 24 24">
    <path d="M5 19 19 5"/>
    <path d="m14 5h5v5"/>
    <path d="M10 19H5v-5"/>
    <rect x="3" y="17" width="4" height="4" rx="1" opacity="0.4"/>
    <rect x="17" y="3" width="4" height="4" rx="1" opacity="0.4"/>
  </symbol>
  <symbol id="rotate" viewBox="0 0 24 24">
    <path d="M18.5 8.5a7.5 7.5 0 1 1-3.3-5.9"/>
    <path d="M18.7 3.8v5.2h-5.2"/>
    <path d="m8.1 8.2 7.2 1.9-1.9 7.2-7.2-1.9z" opacity="0.35"/>
    <path d="M14.7 5.6 17.8 4.4 19 7.5" opacity="0.9"/>
  </symbol>
  <symbol id="point-add" viewBox="0 0 24 24">
    <path d="M4 17 20 7"/>
    <circle cx="12" cy="12" r="2.4"/>
    <path d="M12 8v8M8 12h8"/>
  </symbol>
  <symbol id="point-delete" viewBox="0 0 24 24">
    <path d="M4 17 20 7"/>
    <circle cx="12" cy="12" r="2.4"/>
    <path d="M8.5 8.5 15.5 15.5"/>
    <path d="M15.5 8.5 8.5 15.5"/>
  </symbol>
  <symbol id="merge" viewBox="0 0 24 24">
    <path d="M5 7h7v7H5z" opacity="0.5"/>
    <path d="M12 10h7v7h-7z" opacity="0.8"/>
    <path d="M10 12h4"/>
  </symbol>
  <symbol id="cut" viewBox="0 0 24 24">
    <path d="M5 7h7v10H5z" opacity="0.5"/>
    <path d="M12 9h7v8h-7" opacity="0.8"/>
    <path d="M14 6 20 18"/>
  </symbol>
  <symbol id="offset" viewBox="0 0 24 24">
    <rect x="5" y="5" width="10" height="10" rx="1.5" opacity="0.5"/>
    <path d="M9 19h8a2 2 0 0 0 2-2V9"/>
    <path d="M17 5h2a2 2 0 0 1 2 2v2"/>
  </symbol>
  <symbol id="offset-in" viewBox="0 0 24 24">
    <rect x="4" y="4" width="16" height="16" rx="2"/>
    <rect x="8" y="8" width="8" height="8" rx="1" opacity="0.5"/>
    <path d="M12 5v4M12 19v-4M5 12h4M19 12h-4"/>
  </symbol>
  <symbol id="offset-out" viewBox="0 0 24 24">
    <rect x="8" y="8" width="8" height="8" rx="1" opacity="0.5"/>
    <rect x="4" y="4" width="16" height="16" rx="2"/>
    <path d="M12 2v4M12 22v-4M2 12h4M22 12h-4"/>
  </symbol>
  <symbol id="fillet" viewBox="0 0 24 24">
    <path d="M5 18V8h10"/>
    <path d="M8 18a7 7 0 0 0 7-7"/>
    <circle cx="15" cy="8" r="1.1"/>
    <circle cx="8" cy="18" r="1.1"/>
  </symbol>
  <symbol id="chevron-down" viewBox="0 0 24 24">
    <polyline points="6 9 12 15 18 9"/>
  </symbol>
  <symbol id="plus" viewBox="0 0 24 24">
    <line x1="12" y1="5" x2="12" y2="19"/>
    <line x1="5" y1="12" x2="19" y2="12"/>
  </symbol>
  <symbol id="minus" viewBox="0 0 24 24">
    <line x1="5" y1="12" x2="19" y2="12"/>
  </symbol>

  <!-- Viewport Presets -->
  <symbol id="view-iso" viewBox="0 0 24 24">
    <path d="M12 2l10 5-10 5L2 7l10-5z"/>
    <path d="M2 7v10l10 5 10-5V7"/>
    <path d="M12 12v10"/>
  </symbol>
  <symbol id="view-top" viewBox="0 0 24 24">
    <rect x="4" y="4" width="16" height="16" rx="2" opacity="0.3"/>
    <path d="M12 2v20M2 12h20"/>
  </symbol>

  <!-- Simulation & Export -->
  <symbol id="play" viewBox="0 0 24 24">
    <polygon points="5 3 19 12 5 21 5 3"/>
  </symbol>
  <symbol id="pause" viewBox="0 0 24 24">
    <rect x="6" y="4" width="4" height="16"/>
    <rect x="14" y="4" width="4" height="16"/>
  </symbol>
  <symbol id="export" viewBox="0 0 24 24">
    <path d="M21 15v4a2 2 0 0 1-2 2H5a2 2 0 0 1-2-2v-4"/>
    <polyline points="7 10 12 15 17 10"/>
    <line x1="12" y1="15" x2="12" y2="3"/>
  </symbol>
</svg>
