999
Fixture for the manual DXF import shots: four layers, segmented outline, R12.
0
SECTION
2
HEADER
9
$ACADVER
1
AC1009
9
$INSUNITS
70
1
9
$EXTMIN
10
0.0
20
0.0
30
0.0
9
$EXTMAX
10
4.0
20
3.0
30
0.0
0
ENDSEC
0
SECTION
2
TABLES
0
TABLE
2
LAYER
70
4
0
LAYER
2
OUTLINE
70
0
62
7
6
CONTINUOUS
0
LAYER
2
HOLES
70
0
62
1
6
CONTINUOUS
0
LAYER
2
ENGRAVE
70
0
62
3
6
CONTINUOUS
0
LAYER
2
NOTES
70
0
62
8
6
CONTINUOUS
0
ENDTAB
0
ENDSEC
0
SECTION
2
ENTITIES
0
LINE
8
OUTLINE
10
0.55
20
0.3
30
0.0
11
3.45
21
0.3
31
0.0
0
LINE
8
OUTLINE
10
3.7
20
0.55
30
0.0
11
3.7
21
2.45
31
0.0
0
LINE
8
OUTLINE
10
3.45
20
2.7
30
0.0
11
0.55
21
2.7
31
0.0
0
LINE
8
OUTLINE
10
0.3
20
2.45
30
0.0
11
0.3
21
0.55
31
0.0
0
ARC
8
OUTLINE
10
3.45
20
0.55
30
0.0
40
0.25
50
270
51
360
0
ARC
8
OUTLINE
10
3.45
20
2.45
30
0.0
40
0.25
50
0
51
90
0
ARC
8
OUTLINE
10
0.55
20
2.45
30
0.0
40
0.25
50
90
51
180
0
ARC
8
OUTLINE
10
0.55
20
0.55
30
0.0
40
0.25
50
180
51
270
0
CIRCLE
8
HOLES
10
0.7
20
0.7
30
0.0
40
0.16
0
CIRCLE
8
HOLES
10
3.3
20
0.7
30
0.0
40
0.16
0
CIRCLE
8
HOLES
10
0.7
20
2.3
30
0.0
40
0.16
0
CIRCLE
8
HOLES
10
3.3
20
2.3
30
0.0
40
0.16
0
POLYLINE
8
ENGRAVE
66
1
70
0
0
VERTEX
8
ENGRAVE
10
1.55
20
1.05
30
0.0
0
VERTEX
8
ENGRAVE
10
2.45
20
1.05
30
0.0
0
VERTEX
8
ENGRAVE
10
2.45
20
1.95
30
0.0
0
VERTEX
8
ENGRAVE
10
1.55
20
1.95
30
0.0
0
SEQEND
8
ENGRAVE
0
ARC
8
ENGRAVE
10
2.0
20
1.5
30
0.0
40
0.3
50
200
51
340
0
TEXT
8
NOTES
10
0.4
20
0.1
30
0.0
40
0.12
1
BRACKET PLATE
0
ENDSEC
0
EOF
