# Fixture for the manual's 3D import shots: three separate solids in one file, so the
# import splits into three Model features. Sized in inches to sit inside the default
# 4 x 3 x 0.75 in stock. OBJ carries no units, so the dialog asks for them.

o block
v 0.4000 0.8000 0.0000
v 1.3000 0.8000 0.0000
v 1.3000 1.7000 0.0000
v 0.4000 1.7000 0.0000
v 0.4000 0.8000 0.5000
v 1.3000 0.8000 0.5000
v 1.3000 1.7000 0.5000
v 0.4000 1.7000 0.5000
f 1 2 3 4
f 8 7 6 5
f 1 5 6 2
f 2 6 7 3
f 3 7 8 4
f 4 8 5 1

o post
v 2.4000 1.2500 0.0000
v 2.3864 1.3535 0.0000
v 2.3464 1.4500 0.0000
v 2.2828 1.5328 0.0000
v 2.2000 1.5964 0.0000
v 2.1035 1.6364 0.0000
v 2.0000 1.6500 0.0000
v 1.8965 1.6364 0.0000
v 1.8000 1.5964 0.0000
v 1.7172 1.5328 0.0000
v 1.6536 1.4500 0.0000
v 1.6136 1.3535 0.0000
v 1.6000 1.2500 0.0000
v 1.6136 1.1465 0.0000
v 1.6536 1.0500 0.0000
v 1.7172 0.9672 0.0000
v 1.8000 0.9036 0.0000
v 1.8965 0.8636 0.0000
v 2.0000 0.8500 0.0000
v 2.1035 0.8636 0.0000
v 2.2000 0.9036 0.0000
v 2.2828 0.9672 0.0000
v 2.3464 1.0500 0.0000
v 2.3864 1.1465 0.0000
v 2.4000 1.2500 0.6000
v 2.3864 1.3535 0.6000
v 2.3464 1.4500 0.6000
v 2.2828 1.5328 0.6000
v 2.2000 1.5964 0.6000
v 2.1035 1.6364 0.6000
v 2.0000 1.6500 0.6000
v 1.8965 1.6364 0.6000
v 1.8000 1.5964 0.6000
v 1.7172 1.5328 0.6000
v 1.6536 1.4500 0.6000
v 1.6136 1.3535 0.6000
v 1.6000 1.2500 0.6000
v 1.6136 1.1465 0.6000
v 1.6536 1.0500 0.6000
v 1.7172 0.9672 0.6000
v 1.8000 0.9036 0.6000
v 1.8965 0.8636 0.6000
v 2.0000 0.8500 0.6000
v 2.1035 0.8636 0.6000
v 2.2000 0.9036 0.6000
v 2.2828 0.9672 0.6000
v 2.3464 1.0500 0.6000
v 2.3864 1.1465 0.6000
f 32 31 30 29 28 27 26 25 24 23 22 21 20 19 18 17 16 15 14 13 12 11 10 9
f 33 34 35 36 37 38 39 40 41 42 43 44 45 46 47 48 49 50 51 52 53 54 55 56
f 9 10 34 33
f 10 11 35 34
f 11 12 36 35
f 12 13 37 36
f 13 14 38 37
f 14 15 39 38
f 15 16 40 39
f 16 17 41 40
f 17 18 42 41
f 18 19 43 42
f 19 20 44 43
f 20 21 45 44
f 21 22 46 45
f 22 23 47 46
f 23 24 48 47
f 24 25 49 48
f 25 26 50 49
f 26 27 51 50
f 27 28 52 51
f 28 29 53 52
f 29 30 54 53
f 30 31 55 54
f 31 32 56 55
f 32 9 33 56

o wedge
v 2.7000 0.8000 0.0000
v 3.6000 0.8000 0.0000
v 3.6000 1.7000 0.0000
v 2.7000 1.7000 0.0000
v 2.7000 0.8000 0.5500
v 2.7000 1.7000 0.5500
f 57 58 59 60
f 57 60 62 61
f 58 57 61
f 59 58 61 62
f 60 59 62
